# xmcd
#
# Track frame offsets: 
#        150
#        4153
#        18639
#        24319
#        47877
#        70039
#        91940
#        107614
#        109666
#        126514
#        141690
#        165841
#        191445
#
# Disc length: 2844 seconds
#
# Revision: 1
# Processed by: cddbd v1.5.2PL0 Copyright (c) Steve Scherf et al.
# Submitted via: ExactAudioCopy v0.99pb1
#
DISCID=a90b1a0d
DTITLE=Jeff Beck and Eric Clapton - Exhaust Note [CD1 - November 29, 
DTITLE=2007)
DYEAR=2007
DGENRE=Blues
TTITLE0=Leo Green introduction
TTITLE1=Beck's Bolero
TTITLE2=Breath eternal
TTITLE3=Stratus
TTITLE4='cause we've ended as lovers
TTITLE5=Behind the veil
TTITLE6=You never know
TTITLE7=Blast from the east (false start)
TTITLE8=Nadia
TTITLE9=Blast from the east
TTITLE10=Led boots
TTITLE11=Angel footsteps
TTITLE12=Scatterbrain
EXTD=
EXTT0=
EXTT1=
EXTT2=
EXTT3=
EXTT4=
EXTT5=
EXTT6=
EXTT7=
EXTT8=
EXTT9=
EXTT10=
EXTT11=
EXTT12=
PLAYORDER=
